<svg width="181" height="181" viewBox="0 0 181 181" fill="none" xmlns="http://www.w3.org/2000/svg">
<path d="M149.859 180.535C162.039 172.491 172.491 162.039 180.535 149.859V180.535H149.859Z" fill="white"/>
<path d="M0.534668 149.785C8.58521 161.997 19.054 172.474 31.2592 180.535H0.534668L0.534668 149.785Z" fill="white"/>
<path d="M180.535 0.534668V31.2592C172.474 19.054 161.997 8.58521 149.785 0.534668L180.535 0.534668Z" fill="white"/>
<path d="M0.534668 0.534668L31.3327 0.534668C19.096 8.60138 8.60138 19.096 0.534668 31.3327L0.534668 0.534668Z" fill="white"/>
<path d="M90.559 146.108C121.238 146.108 146.108 121.238 146.108 90.559C146.108 59.8801 121.238 35.01 90.559 35.01C59.8801 35.01 35.01 59.8801 35.01 90.559C35.01 121.238 59.8801 146.108 90.559 146.108Z" fill="white"/>
</svg>
