<svg width="50" height="50" viewBox="0 0 50 50" fill="none" xmlns="http://www.w3.org/2000/svg">
<path d="M8.5211 50C5.13757 47.7655 2.23446 44.8624 0 41.4789V50H8.5211Z" fill="white"/>
<path d="M50 41.4585C47.7637 44.8507 44.8558 47.761 41.4654 50H50V41.4585Z" fill="white"/>
<path d="M0 0V8.53458C2.23896 5.14425 5.14926 2.23626 8.54153 0H0Z" fill="white"/>
<path d="M50 0H41.445C44.8441 2.24075 47.7592 5.15593 50 8.55502V0Z" fill="white"/>
<path d="M24.9933 40.437C16.4714 40.437 9.56299 33.5286 9.56299 25.0067C9.56299 16.4848 16.4714 9.57648 24.9933 9.57648C33.5152 9.57648 40.4235 16.4848 40.4235 25.0067C40.4235 33.5286 33.5152 40.437 24.9933 40.437Z" fill="#EDFF66"/>
</svg>
