<svg width="529" height="523" viewBox="0 0 529 523" fill="none" xmlns="http://www.w3.org/2000/svg">
<path d="M317.327 497.026C349.753 490.567 380.461 477.685 407.46 459.215L382.516 522.657L317.327 497.026Z" fill="#EDFF66"/>
<path d="M25.0036 308.667C32.1816 340.649 45.9093 371.064 65.2924 397.931L0.000141144 372.26L25.0036 308.667Z" fill="#EDFF66"/>
<path d="M528.88 150.397L503.897 213.938C496.693 181.962 482.941 151.557 463.535 124.704L528.88 150.397Z" fill="#EDFF66"/>
<path d="M146.364 0L211.813 25.7329C179.249 32.1916 148.414 45.127 121.321 63.6939L146.364 0Z" fill="#EDFF66"/>
<path d="M194.868 107.468L354.355 223.678L354.41 223.655L334.024 415.367L174.537 299.157L174.483 299.18L194.868 107.468Z" fill="#EDFF66"/>
</svg>
