<svg width="181" height="181" viewBox="0 0 181 181" fill="none" xmlns="http://www.w3.org/2000/svg">
<path d="M31.5824 0.970716C19.4017 9.01477 8.95053 19.466 0.906481 31.6467L0.906478 0.970719L31.5824 0.970716Z" fill="black"/>
<path d="M180.906 31.7202C172.856 19.508 162.387 9.03095 150.182 0.970706L180.906 0.970703L180.906 31.7202Z" fill="black"/>
<path d="M0.906494 180.971L0.906491 150.246C8.96673 162.451 19.4438 172.92 31.656 180.971L0.906494 180.971Z" fill="black"/>
<path d="M180.906 180.971L150.108 180.971C162.345 172.904 172.84 162.409 180.906 150.173L180.906 180.971Z" fill="black"/>
<path d="M90.8975 165.918L47.611 90.9437L47.5847 90.9437L90.8821 15.9505L134.169 90.9249L134.195 90.9249L90.8975 165.918Z" fill="black"/>
</svg>
